<svg width="40" height="40" viewBox="0 0 40 40" fill="none" xmlns="http://www.w3.org/2000/svg">
<g id="Calling">
<g id="Iconly/Bulk/Calling">
<g id="Group">
<g id="Calling_2" opacity="0.4">
<path id="Fill-1" d="M24.0305 9.15025C23.2371 9.00368 22.5085 9.51 22.3574 10.2845C22.2064 11.0589 22.7143 11.8151 23.4861 11.9666C25.8099 12.4197 27.6041 14.2184 28.0589 16.5502V16.5518C28.1884 17.223 28.7793 17.711 29.4598 17.711C29.5511 17.711 29.6424 17.7027 29.7354 17.6861C30.5072 17.5312 31.0151 16.7767 30.8641 16.0005C30.1852 12.5179 27.5046 9.82812 24.0305 9.15025Z" fill="#1777E5"/>
<path id="Fill-3" d="M23.9254 3.34671C23.5536 3.29342 23.1802 3.40334 22.883 3.63984C22.5776 3.87968 22.3868 4.22611 22.3453 4.61418C22.2573 5.39864 22.8233 6.10815 23.6067 6.19642C29.0095 6.79934 33.2089 11.0081 33.8164 16.4277C33.8977 17.1539 34.5069 17.7019 35.2339 17.7019C35.2887 17.7019 35.3418 17.6985 35.3965 17.6919C35.7766 17.6502 36.1153 17.462 36.3543 17.1622C36.5916 16.8624 36.6995 16.4894 36.6564 16.1079C35.8995 9.34593 30.666 4.09786 23.9254 3.34671Z" fill="#1777E5"/>
</g>
</g>
<g id="Call">
<path id="Stroke-1" fill-rule="evenodd" clip-rule="evenodd" d="M18.3862 21.6206C25.0347 28.2673 26.5429 20.5779 30.7761 24.808C34.8571 28.8879 37.2027 29.7053 32.032 34.8745C31.3844 35.395 27.2693 41.6571 12.8077 27.1994C-1.65582 12.74 4.60262 8.62074 5.12326 7.97325C10.3064 2.78974 11.1097 5.14897 15.1908 9.22888C19.4239 13.4608 11.7377 14.974 18.3862 21.6206Z" fill="#1777E5"/>
</g>
</g>
</g>
</svg>
