<svg xmlns="http://www.w3.org/2000/svg" width="40" height="40" viewBox="0 0 40 40" fill="none">
<path d="M22.5 35H17.5" stroke="white" stroke-width="3" stroke-linecap="round" stroke-linejoin="round"/>
<path d="M19.2187 3.09364C16.2499 5.46864 6.32804 14.9686 14.9999 29.9999H24.9999C33.4999 14.9686 23.7187 5.48426 20.7812 3.09364C20.562 2.91058 20.2855 2.8103 19.9999 2.8103C19.7143 2.8103 19.4378 2.91058 19.2187 3.09364Z" stroke="white" stroke-width="3" stroke-linecap="round" stroke-linejoin="round"/>
<path d="M11.5469 17.4062L6.64061 23.2812C6.51701 23.4255 6.4298 23.5972 6.3863 23.7821C6.3428 23.967 6.34428 24.1596 6.39061 24.3438L8.31249 33.0469C8.35887 33.2537 8.4571 33.4454 8.59794 33.6039C8.73879 33.7623 8.91763 33.8824 9.11764 33.9527C9.31764 34.023 9.53225 34.0413 9.74127 34.0058C9.95029 33.9704 10.1469 33.8823 10.3125 33.75L15 30" stroke="white" stroke-width="3" stroke-linecap="round" stroke-linejoin="round"/>
<path d="M28.3594 17.2812L33.3594 23.2813C33.483 23.4255 33.5702 23.5972 33.6137 23.7821C33.6572 23.967 33.6557 24.1596 33.6094 24.3438L31.6875 33.0469C31.6411 33.2537 31.5429 33.4454 31.402 33.6039C31.2612 33.7623 31.0824 33.8824 30.8824 33.9527C30.6823 34.023 30.4677 34.0413 30.2587 34.0058C30.0497 33.9704 29.8531 33.8823 29.6875 33.75L25 30" stroke="white" stroke-width="3" stroke-linecap="round" stroke-linejoin="round"/>
<path d="M20 16.875C21.0355 16.875 21.875 16.0355 21.875 15C21.875 13.9645 21.0355 13.125 20 13.125C18.9645 13.125 18.125 13.9645 18.125 15C18.125 16.0355 18.9645 16.875 20 16.875Z" fill="white"/>
</svg>