<svg width="40" height="40" viewBox="0 0 40 40" fill="none" xmlns="http://www.w3.org/2000/svg">
<g id="Send">
<g id="Iconly/Bulk/Send">
<g id="Send_2">
<path id="Fill-1" d="M35.7123 4.29733C34.879 3.44566 33.6457 3.13066 32.4957 3.46399L5.67901 11.2123C4.46568 11.549 3.60568 12.5107 3.37401 13.7307C3.13735 14.974 3.96401 16.554 5.04401 17.214L13.429 22.334C14.289 22.8607 15.399 22.729 16.1107 22.0157L25.7123 12.414C26.1957 11.9123 26.9957 11.9123 27.479 12.414C27.9623 12.8957 27.9623 13.6807 27.479 14.1807L17.8607 23.7823C17.1473 24.4957 17.014 25.6023 17.539 26.464L22.6623 34.8807C23.2623 35.879 24.2957 36.4473 25.429 36.4473C25.5623 36.4473 25.7123 36.4473 25.8457 36.429C27.1457 36.264 28.179 35.379 28.5623 34.129L36.5123 7.51399C36.8624 6.38066 36.5457 5.14733 35.7123 4.29733Z" fill="#1777E5"/>
<path id="Combined-Shape" opacity="0.4" d="M15.7524 31.9039C16.239 32.3923 16.239 33.184 15.7524 33.6723L13.4757 35.9473C13.2324 36.1923 12.9124 36.3139 12.5924 36.3139C12.2724 36.3139 11.9524 36.1923 11.709 35.9473C11.2207 35.459 11.2207 34.6689 11.709 34.1806L13.984 31.9039C14.4724 31.4173 15.264 31.4173 15.7524 31.9039ZM14.4462 25.5906C14.9329 26.0789 14.9329 26.8706 14.4462 27.3589L12.1695 29.6339C11.9262 29.8789 11.6062 30.0006 11.2862 30.0006C10.9662 30.0006 10.6462 29.8789 10.4029 29.6339C9.91453 29.1456 9.91453 28.3556 10.4029 27.8673L12.6779 25.5906C13.1662 25.1039 13.9579 25.1039 14.4462 25.5906ZM8.17753 23.6033C8.6642 24.0916 8.6642 24.8833 8.17753 25.3716L5.90086 27.6466C5.65753 27.8916 5.33753 28.0133 5.01753 28.0133C4.69753 28.0133 4.37753 27.8916 4.13419 27.6466C3.64586 27.1583 3.64586 26.3683 4.13419 25.8799L6.40919 23.6033C6.89753 23.1166 7.6892 23.1166 8.17753 23.6033Z" fill="#1777E5"/>
</g>
</g>
</g>
</svg>
